<svg width="1414" height="280" viewBox="0 0 1414 280" fill="none" xmlns="http://www.w3.org/2000/svg">
<path d="M485.07 63.06H513L570.75 213H542.61L528.54 173.31H468.69L454.62 213H427.53L485.07 63.06ZM475.83 153.36H521.61L499.14 88.89H498.51L475.83 153.36ZM683.938 213H661.258V198.3H660.838C657.618 204.6 652.928 209.15 646.768 211.95C640.608 214.61 634.098 215.94 627.238 215.94C618.698 215.94 611.208 214.47 604.768 211.53C598.468 208.45 593.218 204.32 589.018 199.14C584.818 193.96 581.668 187.87 579.568 180.87C577.468 173.73 576.418 166.1 576.418 157.98C576.418 148.18 577.748 139.71 580.408 132.57C583.068 125.43 586.568 119.55 590.908 114.93C595.388 110.31 600.428 106.95 606.028 104.85C611.768 102.61 617.578 101.49 623.458 101.49C626.818 101.49 630.248 101.84 633.748 102.54C637.248 103.1 640.608 104.08 643.828 105.48C647.048 106.88 649.988 108.7 652.648 110.94C655.448 113.04 657.758 115.56 659.578 118.5H659.998V63.06H683.938V213ZM600.358 159.87C600.358 164.49 600.918 169.04 602.038 173.52C603.298 178 605.118 181.99 607.498 185.49C610.018 188.99 613.168 191.79 616.948 193.89C620.728 195.99 625.208 197.04 630.388 197.04C635.708 197.04 640.258 195.92 644.038 193.68C647.958 191.44 651.108 188.5 653.488 184.86C656.008 181.22 657.828 177.16 658.948 172.68C660.208 168.06 660.838 163.37 660.838 158.61C660.838 146.57 658.108 137.19 652.648 130.47C647.328 123.75 640.048 120.39 630.808 120.39C625.208 120.39 620.448 121.58 616.528 123.96C612.748 126.2 609.598 129.21 607.078 132.99C604.698 136.63 602.948 140.83 601.828 145.59C600.848 150.21 600.358 154.97 600.358 159.87ZM759.817 215.94C751.137 215.94 743.367 214.54 736.507 211.74C729.787 208.8 724.047 204.81 719.287 199.77C714.667 194.73 711.097 188.71 708.577 181.71C706.197 174.71 705.007 167.01 705.007 158.61C705.007 150.35 706.197 142.72 708.577 135.72C711.097 128.72 714.667 122.7 719.287 117.66C724.047 112.62 729.787 108.7 736.507 105.9C743.367 102.96 751.137 101.49 759.817 101.49C768.497 101.49 776.197 102.96 782.917 105.9C789.777 108.7 795.517 112.62 800.137 117.66C804.897 122.7 808.467 128.72 810.847 135.72C813.367 142.72 814.627 150.35 814.627 158.61C814.627 167.01 813.367 174.71 810.847 181.71C808.467 188.71 804.897 194.73 800.137 199.77C795.517 204.81 789.777 208.8 782.917 211.74C776.197 214.54 768.497 215.94 759.817 215.94ZM759.817 197.04C765.137 197.04 769.757 195.92 773.677 193.68C777.597 191.44 780.817 188.5 783.337 184.86C785.857 181.22 787.677 177.16 788.797 172.68C790.057 168.06 790.687 163.37 790.687 158.61C790.687 153.99 790.057 149.37 788.797 144.75C787.677 140.13 785.857 136.07 783.337 132.57C780.817 128.93 777.597 125.99 773.677 123.75C769.757 121.51 765.137 120.39 759.817 120.39C754.497 120.39 749.877 121.51 745.957 123.75C742.037 125.99 738.817 128.93 736.297 132.57C733.777 136.07 731.887 140.13 730.627 144.75C729.507 149.37 728.947 153.99 728.947 158.61C728.947 163.37 729.507 168.06 730.627 172.68C731.887 177.16 733.777 181.22 736.297 184.86C738.817 188.5 742.037 191.44 745.957 193.68C749.877 195.92 754.497 197.04 759.817 197.04ZM835.16 63.06H859.1V118.5H859.52C861.2 115.84 863.23 113.46 865.61 111.36C867.99 109.26 870.58 107.51 873.38 106.11C876.32 104.57 879.33 103.45 882.41 102.75C885.63 101.91 888.78 101.49 891.86 101.49C900.4 101.49 907.82 103.03 914.12 106.11C920.56 109.05 925.88 113.18 930.08 118.5C934.28 123.68 937.43 129.77 939.53 136.77C941.63 143.77 942.68 151.26 942.68 159.24C942.68 166.52 941.7 173.59 939.74 180.45C937.92 187.31 935.05 193.4 931.13 198.72C927.35 203.9 922.52 208.1 916.64 211.32C910.76 214.4 903.83 215.94 895.85 215.94C892.21 215.94 888.5 215.66 884.72 215.1C881.08 214.68 877.58 213.77 874.22 212.37C870.86 210.97 867.78 209.15 864.98 206.91C862.32 204.67 860.08 201.73 858.26 198.09H857.84V213H835.16V63.06ZM918.74 158.82C918.74 153.92 918.11 149.16 916.85 144.54C915.59 139.92 913.7 135.86 911.18 132.36C908.66 128.72 905.51 125.85 901.73 123.75C897.95 121.51 893.61 120.39 888.71 120.39C878.63 120.39 871 123.89 865.82 130.89C860.78 137.89 858.26 147.2 858.26 158.82C858.26 164.28 858.89 169.39 860.15 174.15C861.55 178.77 863.58 182.76 866.24 186.12C868.9 189.48 872.05 192.14 875.69 194.1C879.47 196.06 883.81 197.04 888.71 197.04C894.17 197.04 898.79 195.92 902.57 193.68C906.35 191.44 909.43 188.57 911.81 185.07C914.33 181.43 916.08 177.37 917.06 172.89C918.18 168.27 918.74 163.58 918.74 158.82ZM1037.46 149.16C1037.18 145.38 1036.34 141.74 1034.94 138.24C1033.68 134.74 1031.86 131.73 1029.48 129.21C1027.24 126.55 1024.44 124.45 1021.08 122.91C1017.86 121.23 1014.22 120.39 1010.16 120.39C1005.96 120.39 1002.11 121.16 998.609 122.7C995.249 124.1 992.309 126.13 989.789 128.79C987.409 131.31 985.449 134.32 983.909 137.82C982.509 141.32 981.739 145.1 981.599 149.16H1037.46ZM981.599 164.91C981.599 169.11 982.159 173.17 983.279 177.09C984.539 181.01 986.359 184.44 988.739 187.38C991.119 190.32 994.129 192.7 997.769 194.52C1001.41 196.2 1005.75 197.04 1010.79 197.04C1017.79 197.04 1023.39 195.57 1027.59 192.63C1031.93 189.55 1035.15 185 1037.25 178.98H1059.93C1058.67 184.86 1056.5 190.11 1053.42 194.73C1050.34 199.35 1046.63 203.27 1042.29 206.49C1037.95 209.57 1033.05 211.88 1027.59 213.42C1022.27 215.1 1016.67 215.94 1010.79 215.94C1002.25 215.94 994.689 214.54 988.109 211.74C981.529 208.94 975.929 205.02 971.309 199.98C966.829 194.94 963.399 188.92 961.019 181.92C958.779 174.92 957.659 167.22 957.659 158.82C957.659 151.12 958.849 143.84 961.229 136.98C963.749 129.98 967.249 123.89 971.729 118.71C976.349 113.39 981.879 109.19 988.319 106.11C994.759 103.03 1002.04 101.49 1010.16 101.49C1018.7 101.49 1026.33 103.31 1033.05 106.95C1039.91 110.45 1045.58 115.14 1050.06 121.02C1054.54 126.9 1057.76 133.69 1059.72 141.39C1061.82 148.95 1062.38 156.79 1061.4 164.91H981.599ZM1128.39 63.06H1159.68L1193.7 115.98L1229.19 63.06H1258.59L1209.03 135.3L1262.16 213H1230.24L1192.86 155.67L1154.85 213H1124.82L1177.95 135.3L1128.39 63.06ZM1277.58 63.06H1339.74C1351.22 63.06 1361.16 65.02 1369.56 68.94C1377.96 72.86 1384.82 78.25 1390.14 85.11C1395.46 91.83 1399.38 99.74 1401.9 108.84C1404.56 117.94 1405.89 127.67 1405.89 138.03C1405.89 148.39 1404.56 158.12 1401.9 167.22C1399.38 176.32 1395.46 184.3 1390.14 191.16C1384.82 197.88 1377.96 203.2 1369.56 207.12C1361.16 211.04 1351.22 213 1339.74 213H1277.58V63.06ZM1303.83 191.58H1329.66C1339.88 191.58 1348.21 190.25 1354.65 187.59C1361.23 184.79 1366.34 181.01 1369.98 176.25C1373.76 171.35 1376.28 165.68 1377.54 159.24C1378.94 152.66 1379.64 145.59 1379.64 138.03C1379.64 130.47 1378.94 123.47 1377.54 117.03C1376.28 110.45 1373.76 104.78 1369.98 100.02C1366.34 95.12 1361.23 91.34 1354.65 88.68C1348.21 85.88 1339.88 84.48 1329.66 84.48H1303.83V191.58Z" fill="white"/>
<rect x="41.4414" y="36.96" width="201.6" height="201.6" fill="#ED6CEF"/>
<path fill-rule="evenodd" clip-rule="evenodd" d="M238.162 0H51.25C22.9118 0 0 22.735 0 50.8547V229.145C0 257.265 22.9118 280 51.25 280H238.162C266.5 280 289.412 257.265 289.412 229.145V50.8547C289.412 22.735 266.5 0 238.162 0ZM202.645 202.995C194.458 203.104 186.271 201.471 178.858 198.095C171.888 194.938 166.135 189.711 162.152 183.287C158.059 176.645 156.067 168.37 156.067 158.462C155.956 150.404 158.059 142.456 162.152 135.487C166.356 128.41 172.441 122.53 179.743 118.61C187.488 114.364 196.781 112.295 207.734 112.295C208.287 112.295 209.062 112.295 210.057 112.404C210.592 112.463 211.159 112.49 211.775 112.519C212.306 112.544 212.873 112.571 213.487 112.622V78.2146C213.487 77.4525 213.819 77.0169 214.593 77.0169H237.052C237.606 76.908 238.048 77.3436 238.159 77.7791V181.654C238.159 183.434 238.25 185.394 238.35 187.534L238.38 188.187C238.567 190.121 238.675 191.977 238.771 193.623C238.789 193.924 238.806 194.217 238.823 194.502C238.823 195.264 238.491 195.917 237.716 196.244C231.963 198.64 225.878 200.382 219.683 201.471C214.04 202.451 208.398 202.995 202.645 202.995ZM213.487 181.218V133.31L213.487 133.309C212.491 133.092 211.495 132.874 210.5 132.765L210.499 132.765C209.283 132.656 208.066 132.547 206.849 132.547C202.534 132.547 198.219 133.418 194.347 135.378C190.585 137.229 187.377 139.951 184.943 143.436C182.509 146.92 181.292 151.602 181.292 157.264C181.181 161.075 181.845 164.886 183.173 168.479C184.279 171.419 185.939 174.032 188.151 176.21C190.254 178.17 192.798 179.694 195.675 180.565C198.662 181.545 201.76 181.98 204.857 181.98C206.517 181.98 208.066 181.872 209.504 181.763C210.942 181.872 212.159 181.654 213.487 181.218ZM151.532 88.1234L118.341 142.021L153.745 199.184C153.966 199.62 154.077 200.055 153.966 200.491C153.898 200.758 153.705 200.738 153.413 200.708C153.229 200.69 153.006 200.667 152.749 200.709H127.414C125.643 200.709 124.426 200.6 123.652 199.511C122.49 197.224 121.301 194.965 120.112 192.706C118.922 190.446 117.733 188.187 116.571 185.901C114.248 181.436 111.703 176.863 109.048 172.181L109.047 172.18C106.392 167.498 103.737 162.817 101.082 158.027H100.861C98.5377 162.708 95.9932 167.39 93.4487 172.072L93.4484 172.072L93.4477 172.074L93.4464 172.076C90.9025 176.757 88.3585 181.438 85.9252 186.01C85.0769 187.534 84.2287 189.07 83.3804 190.607L83.3797 190.608C81.6836 193.681 79.9874 196.753 78.2913 199.729C77.8488 200.818 76.9637 200.927 75.7467 200.927H51.4068C51.299 200.927 51.1977 200.939 51.1062 200.951C50.8222 200.987 50.6324 201.012 50.6324 200.6C50.5217 200.164 50.6324 199.729 50.8537 199.402L85.2614 143.872L51.7387 88.0145C51.4068 87.579 51.2962 87.1435 51.5175 86.9257C51.7387 86.5991 52.1813 86.4902 52.6238 86.4902H77.7381C78.2913 86.4902 78.8445 86.5991 79.287 86.7079C79.7296 86.9257 80.0615 87.2524 80.3934 87.6879C82.4955 92.3699 84.9295 97.0519 87.4741 101.734C87.9562 102.584 88.4348 103.431 88.9116 104.274C91.0608 108.077 93.1762 111.819 95.4398 115.562C98.0951 120.135 100.529 124.708 102.852 129.39H103.074C105.397 124.599 107.831 119.917 110.265 115.344C112.699 110.771 115.244 106.198 117.788 101.625C119.294 98.9181 120.762 96.1731 122.213 93.4576C123.214 91.5855 124.208 89.7275 125.201 87.9057C125.311 87.4701 125.533 87.0346 125.865 86.8168C126.307 86.5991 126.75 86.4902 127.303 86.5991H150.647C151.2 86.4902 151.753 86.8168 151.864 87.3612C151.975 87.4701 151.753 87.9057 151.532 88.1234Z" fill="#3F0732"/>
</svg>
