<svg width="941" height="238" viewBox="0 0 941 238" fill="none" xmlns="http://www.w3.org/2000/svg">
<path fill-rule="evenodd" clip-rule="evenodd" d="M624.855 15.5125C617.199 22.8625 617.199 35.1125 624.855 42.7687C632.512 50.425 645.068 50.425 652.418 42.7687C660.074 35.4187 660.074 22.8625 652.418 15.5125C645.068 8.1625 632.512 8.1625 624.855 15.5125ZM776.755 66.35L758.993 69.1062C725.305 76.7625 703.255 87.7875 703.255 124.538V198.344L733.88 204.469V129.438C733.88 112.287 743.68 104.325 758.993 101.569L776.755 98.2V66.35ZM542.78 198.956L573.405 205.081V121.475C573.405 81.3563 542.168 66.9625 520.424 66.9625C505.724 66.9625 494.393 70.6375 483.98 80.7438C473.262 70.6375 460.399 66.6562 449.987 66.6562C434.98 66.6562 422.118 73.0875 413.543 83.5V69.4125L382.918 75.5375V198.956L413.543 205.081V120.25C413.543 106.775 423.343 97.2812 438.349 97.2812C453.049 97.2812 462.849 106.775 462.849 120.25V198.956L493.474 205.081V120.25C493.474 106.775 503.274 97.2812 517.974 97.2812C532.674 97.2812 542.474 106.775 542.474 120.25V198.956H542.78ZM940.293 136.175C940.293 174.762 908.749 206 870.162 206C831.268 206 799.724 174.762 799.724 136.175C799.724 97.8938 831.268 66.6562 870.162 66.6562C908.749 66.6562 940.293 97.8938 940.293 136.175ZM870.162 176.906C847.805 176.906 829.43 158.838 829.43 136.175C829.43 113.819 847.805 95.75 870.162 95.75C892.518 95.75 910.587 113.819 910.587 136.175C910.893 158.838 892.824 176.906 870.162 176.906ZM653.949 206L623.324 198.956V74.6188L653.949 68.4938V206Z" fill="white"/>
<path fill-rule="evenodd" clip-rule="evenodd" d="M186.433 0H51.5667C23.3042 0 0 23.3042 0 51.5667V186.433C0 214.696 23.3042 238 51.5667 238H186.433C214.696 238 238 214.696 238 186.433V51.5667C238 23.3042 214.696 0 186.433 0ZM137.346 44.625H159.245L199.325 69.4167L159.658 193.375H137.759L155.94 80.1597L115.86 193.375H93.9604L114.207 87.184L72.4743 193.375H50.575L72.4743 94.2083L50.575 44.625H72.4743L113.794 83.4653L93.9604 44.625H115.86L155.526 76.441L137.346 44.625Z" fill="#FFD02F"/>
</svg>
