<svg width="997" height="240" viewBox="0 0 997 240" fill="none" xmlns="http://www.w3.org/2000/svg">
<path d="M401.357 201.628V96.9922H403.202L478.581 201.628H502.302V47.969H475.946V152.341H474.101L398.721 47.969H375V201.628H401.357ZM576.891 204C611.682 204 633.031 181.333 633.031 143.38C633.031 105.69 611.682 82.7597 576.891 82.7597C542.364 82.7597 520.752 105.69 520.752 143.38C521.015 181.333 542.101 204 576.891 204ZM576.891 181.86C558.442 181.86 547.899 167.891 547.899 143.38C547.899 119.132 558.442 104.899 576.891 104.899C595.341 104.899 605.884 119.132 605.884 143.38C605.884 167.891 595.341 181.86 576.891 181.86ZM657.015 56.6666V85.9225H638.566V107.008H657.015V170.527C657.015 193.194 667.558 202.155 694.442 202.155C699.45 202.155 704.457 201.628 708.411 200.837V180.279C705.248 180.543 703.139 180.806 699.45 180.806C688.38 180.806 683.372 175.798 683.372 164.202V107.008H708.411V85.9225H683.372V56.6666H657.015ZM724.225 201.628H750.581V85.1318H724.225V201.628ZM737.403 65.8914C746.101 65.8914 753.217 58.7752 753.217 50.0775C753.217 41.1163 746.101 34 737.403 34C728.705 34 721.589 41.1163 721.589 50.0775C721.589 58.7752 728.705 65.8914 737.403 65.8914ZM822.798 204C857.589 204 878.938 181.333 878.938 143.38C878.938 105.69 857.589 82.7597 822.798 82.7597C788.271 82.7597 766.659 105.69 766.659 143.38C766.659 181.333 787.744 204 822.798 204ZM822.798 181.86C804.349 181.86 793.806 167.891 793.806 143.38C793.806 119.132 804.349 104.899 822.798 104.899C840.984 104.899 851.791 119.132 851.791 143.38C851.527 167.891 840.984 181.86 822.798 181.86ZM894.488 201.628H920.845V133.891C920.845 116.76 930.86 105.953 946.411 105.953C962.488 105.953 969.868 114.915 969.868 132.574V201.628H996.225V126.248C996.225 98.3101 981.992 82.7597 956.163 82.7597C938.767 82.7597 927.17 90.6667 921.636 103.845H919.791V85.1318H894.225C894.488 85.1318 894.488 201.628 894.488 201.628Z" fill="#5C5C5C"/>
<path fill-rule="evenodd" clip-rule="evenodd" d="M39.706 42.0233C47.2008 48.0829 49.9116 47.6045 63.9443 46.6477L196.138 38.6746C199.009 38.6746 196.617 35.8043 195.66 35.4854L173.654 19.6986C169.508 16.5094 163.768 12.6823 153.084 13.6391L25.195 23.0473C20.5706 23.5257 19.6138 25.9177 21.5274 27.6717L39.706 42.0233ZM47.6792 72.7995V211.85C47.6792 219.345 51.3468 222.056 59.7983 221.578L205.068 213.126C213.52 212.648 214.476 207.545 214.476 201.485V63.3912C214.476 57.3317 212.084 53.983 206.982 54.4613L55.1739 63.3912C49.5927 63.8696 47.6792 66.7399 47.6792 72.7995ZM191.036 80.2942C191.992 84.4402 191.036 88.7457 186.89 89.2241L179.873 90.6592V193.353C173.814 196.542 168.232 198.456 163.449 198.456C155.954 198.456 154.04 196.064 148.459 189.047L102.694 117.13V186.655L117.205 189.845C117.205 189.845 117.205 198.296 105.564 198.296L73.3525 200.21C72.3958 198.296 73.3525 193.672 76.5418 192.715L84.9933 190.323V98.4729L73.3525 97.5161C72.3958 93.3701 74.7877 87.3105 81.3256 86.8321L115.929 84.4402L163.608 157.155V92.8917L151.489 91.4566C150.532 86.3538 154.359 82.5267 158.984 82.0483L191.036 80.2942ZM14.511 10.2904L147.662 0.563187C163.927 -0.871971 168.232 0.0848038 178.438 7.57952L220.855 37.3989C227.871 42.5017 230.263 43.9369 230.263 49.518V213.286C230.263 223.491 226.596 229.551 213.52 230.507L59.001 239.916C49.1143 240.394 44.4899 238.959 39.3871 232.421L7.9731 191.758C2.39193 184.263 0 178.682 0 172.144V26.5555C0 18.104 3.82709 11.2471 14.511 10.2904Z" fill="#5C5C5C"/>
</svg>
