<svg width="1036" height="246" viewBox="0 0 1036 246" fill="none" xmlns="http://www.w3.org/2000/svg">
<g clip-path="url(#clip0_276_1084)">
<path fill-rule="evenodd" clip-rule="evenodd" d="M1012.5 211C1023.91 211 1030.91 207.63 1035.83 202.964L1030.13 188.449C1027.54 191.3 1022.35 193.633 1016.91 193.633C1008.35 193.633 1004.21 186.894 1004.21 177.562V99.8008H1029.61V82.6933H1004.21V48.4784H984.767V82.6933H964.031V99.8008H984.767V181.709C984.767 200.373 994.098 211 1012.5 211H1012.5H1012.5ZM907.784 211C930.593 211 944.072 201.668 953.663 189.227L940.703 177.303C932.408 188.449 921.781 193.633 908.82 193.633C882.122 193.633 865.533 172.896 865.533 145.161C865.533 117.427 882.122 96.9495 908.82 96.9495C921.781 96.9493 932.408 101.874 940.702 113.279L953.663 101.356C944.072 88.9143 930.593 79.5828 907.783 79.5828C870.458 79.5828 845.315 108.095 845.315 145.161C845.316 182.487 870.458 211 907.783 211H907.784V211ZM759.778 197.002C741.634 197.002 728.933 185.598 728.933 169.787C728.933 153.715 741.634 142.31 759.778 142.31C773.516 142.31 786.735 147.494 794.252 157.862L794.252 181.45C786.736 191.818 773.516 197.002 759.778 197.002L759.778 197.002V197.002ZM813.693 207.889V121.833C813.693 91.5063 791.66 79.5831 765.221 79.5831C744.744 79.5831 728.673 86.3231 715.195 100.319L724.267 113.798C735.413 101.875 747.595 96.4313 762.629 96.4313C780.774 96.4312 794.252 106.022 794.252 122.87L794.252 145.421C784.143 133.757 769.887 128.313 752.779 128.313C731.525 128.313 708.974 141.533 708.974 169.527C708.974 196.743 731.525 211 752.779 211C769.628 211 783.884 205.038 794.252 193.633L794.252 207.889H813.693ZM665.428 137.385H583.262C584.299 118.204 597.518 95.6535 624.214 95.6535C652.727 95.6535 665.169 118.723 665.428 137.385H665.428ZM626.547 211C647.024 211 663.872 204.26 676.314 191.818L666.983 179.118C657.133 189.227 642.618 194.929 628.361 194.929C601.406 194.929 584.816 175.229 583.261 151.642H684.609V146.718C684.609 109.132 662.317 79.5831 624.473 79.5831C588.704 79.5831 562.784 108.873 562.784 145.162C562.784 184.301 589.482 211 626.547 211H626.547L626.547 211ZM487.874 120.278H442.514V54.1809H487.874C508.351 54.1809 522.349 67.6595 522.349 87.0999C522.349 106.54 508.351 120.278 487.874 120.278ZM546.455 207.889L499.798 137.385C523.385 135.312 544.64 118.204 544.64 87.0999C544.64 55.2177 522.089 35 490.467 35H421V207.889H442.514V139.2H476.988L521.053 207.889H546.455H546.455Z" fill="#00D8FF"/>
</g>
<path d="M226.837 79.732C223.898 78.7281 220.938 77.7932 217.957 76.9272C218.451 74.9155 218.907 72.8923 219.324 70.8577C226.049 38.1535 221.652 11.8063 206.645 3.13313C192.276 -5.18946 168.711 3.48373 144.938 24.2212C142.601 26.2674 140.312 28.3749 138.07 30.5437C136.576 29.1029 135.043 27.6928 133.472 26.3134C108.556 4.13896 83.5823 -5.20096 68.5924 3.50098C54.2233 11.8408 49.9528 36.6074 56.0051 67.6045C56.6105 70.6699 57.2906 73.7219 58.0455 76.7605C54.5107 77.7663 51.0966 78.8411 47.8319 79.9792C18.6569 90.1812 0 106.177 0 122.765C0 139.904 20.0248 157.09 50.4471 167.51C52.9148 168.349 55.4054 169.129 57.919 169.849C57.1029 173.103 56.3806 176.392 55.7522 179.718C50.0045 210.181 54.4877 234.361 68.8281 242.649C83.6398 251.207 108.487 242.413 132.707 221.205C134.623 219.526 136.539 217.754 138.455 215.888C140.877 218.229 143.367 220.502 145.927 222.705C169.377 242.925 192.535 251.092 206.852 242.781C221.652 234.194 226.463 208.215 220.215 176.609C219.736 174.195 219.185 171.731 218.56 169.217C220.307 168.7 222.018 168.165 223.693 167.614C255.305 157.113 275.899 140.134 275.899 122.782C275.887 106.114 256.632 90.0146 226.837 79.732ZM152.692 33.1301C173.056 15.3641 192.092 8.35199 200.771 13.3639C210.008 18.7035 213.6 40.2342 207.795 68.4724C207.412 70.3116 206.998 72.1451 206.553 73.9729C194.401 71.2087 182.077 69.2578 169.665 68.1333C162.558 57.896 154.768 48.1507 146.347 38.964C148.408 36.9638 150.519 35.0192 152.681 33.1301H152.692ZM81.4614 136.938C83.9559 141.766 86.5634 146.535 89.284 151.244C92.0543 156.049 94.9416 160.783 97.9457 165.447C89.4051 164.518 80.918 163.15 72.5181 161.349C74.9551 153.463 77.9553 145.272 81.4614 136.938ZM81.4614 109.16C78.0128 101.004 75.093 92.9804 72.6962 85.2325C80.5705 83.468 88.9621 82.0253 97.71 80.9333C94.7787 85.5084 91.9585 90.1506 89.2495 94.8598C86.5404 99.5691 83.9386 104.336 81.4442 109.16H81.4614ZM87.7264 123.052C91.3589 115.477 95.2711 108.047 99.463 100.763C103.651 93.4823 108.109 86.3686 112.838 79.4217C121.045 78.8009 129.46 78.4733 137.961 78.4733C146.462 78.4733 154.928 78.8009 163.13 79.4274C167.808 86.3591 172.24 93.4478 176.424 100.694C180.608 107.94 184.572 115.335 188.316 122.88C184.622 130.482 180.668 137.942 176.453 145.261C172.272 152.541 167.866 159.676 163.233 166.665C155.043 167.24 146.565 167.556 137.944 167.556C129.322 167.556 121.005 167.286 112.964 166.763C108.201 159.793 103.707 152.649 99.4803 145.33C95.2539 138.011 91.3301 130.585 87.7091 123.052H87.7264ZM186.655 151.164C189.433 146.343 192.1 141.46 194.656 136.513C198.159 144.457 201.252 152.576 203.921 160.837C195.422 162.751 186.829 164.218 178.177 165.234C181.097 160.601 183.923 155.911 186.655 151.164ZM194.541 109.166C191.996 104.319 189.351 99.5288 186.603 94.7966C183.921 90.1295 181.126 85.5199 178.217 80.9678C187.017 82.0828 195.46 83.5657 203.375 85.3762C200.83 93.4489 197.882 101.389 194.541 109.166ZM138.076 47.4073C143.815 53.6785 149.234 60.2353 154.313 67.0527C143.45 66.5354 132.579 66.5354 121.701 67.0527C127.063 59.9601 132.552 53.3791 138.076 47.4073ZM74.524 13.7145C83.7547 8.35774 104.165 16.0136 125.678 35.136C127.052 36.3603 128.437 37.642 129.816 38.9697C121.352 48.1551 113.507 57.892 106.331 68.116C93.9467 69.2319 81.6477 71.1518 69.5121 73.8637C68.8108 71.0435 68.1786 68.2042 67.6153 65.3457C62.4137 38.7743 65.8566 18.7437 74.524 13.7145ZM61.0688 158.469C58.7697 157.814 56.4994 157.103 54.2578 156.337C40.8083 151.739 29.6981 145.738 22.071 139.203C15.2428 133.346 11.7827 127.501 11.7827 122.765C11.7827 112.701 26.761 99.8603 51.7403 91.1526C54.8785 90.0606 58.0436 89.0624 61.2354 88.1581C64.9453 100.08 69.4382 111.745 74.6849 123.075C69.3757 134.562 64.8271 146.385 61.0688 158.469ZM124.942 212.307C114.235 221.687 103.509 228.337 94.0545 231.688C85.5595 234.694 78.7945 234.781 74.7079 232.418C66.006 227.389 62.385 207.968 67.3222 181.919C67.9085 178.854 68.579 175.789 69.3339 172.723C81.591 175.364 94.0135 177.167 106.515 178.12C113.761 188.398 121.671 198.19 130.196 207.433C128.483 209.117 126.73 210.738 124.942 212.307ZM138.403 198.961C132.817 192.92 127.241 186.236 121.804 179.051C127.088 179.258 132.468 179.362 137.944 179.362C143.565 179.362 149.128 179.241 154.612 178.994C149.552 185.921 144.142 192.585 138.403 198.961ZM209.973 215.394C208.329 224.268 205.024 230.188 200.938 232.556C192.242 237.603 173.648 231.045 153.6 213.75C151.301 211.773 149.002 209.652 146.663 207.428C155.021 198.148 162.746 188.316 169.786 178C182.357 176.934 194.839 175.004 207.145 172.223C207.708 174.499 208.207 176.729 208.64 178.913C211.404 192.88 211.801 205.514 209.973 215.394ZM219.974 156.4C218.468 156.9 216.916 157.383 215.341 157.854C211.483 145.876 206.814 134.173 201.369 122.828C206.61 111.634 211.096 100.101 214.795 88.3075C217.617 89.1294 220.359 89.9916 222.997 90.9055C248.528 99.7109 264.104 112.747 264.104 122.765C264.104 133.455 247.281 147.33 219.974 156.4Z" fill="#00D8FF"/>
<path d="M137.944 147.457C142.836 147.472 147.622 146.037 151.697 143.331C155.772 140.625 158.952 136.77 160.835 132.256C162.718 127.741 163.219 122.769 162.274 117.97C161.33 113.17 158.982 108.759 155.529 105.294C152.076 101.83 147.672 99.4679 142.876 98.5077C138.079 97.5476 133.106 98.0323 128.585 99.9005C124.064 101.769 120.2 104.936 117.48 109.003C114.761 113.069 113.31 117.85 113.31 122.742C113.303 125.982 113.935 129.193 115.169 132.189C116.404 135.185 118.217 137.909 120.505 140.204C122.793 142.5 125.51 144.322 128.503 145.566C131.495 146.81 134.703 147.453 137.944 147.457Z" fill="#00D8FF"/>
<defs>
<clipPath id="clip0_276_1084">
<rect width="614.83" height="176" fill="white" transform="translate(421 35)"/>
</clipPath>
</defs>
</svg>
