<svg width="1069" height="240" viewBox="0 0 1069 240" fill="none" xmlns="http://www.w3.org/2000/svg">
<mask id="mask0_275_1054" style="mask-type:luminance" maskUnits="userSpaceOnUse" x="400" y="35" width="669" height="172">
<path d="M990.914 37.724V35H988.19H972.728H970.004V37.724V201.226V203.947H972.728H988.19H990.914V201.226V135.606C990.914 115.615 1003.07 103.888 1021.51 103.888C1039.13 103.888 1047.98 114.094 1047.98 133.428V201.226V203.947H1050.7H1066.17H1068.89V201.226V130.375C1068.89 103.067 1051.99 84.9203 1024.13 84.9203C1009.79 84.9203 998.271 90.1784 990.913 97.7227V37.724H990.914ZM897.254 206.563C926.2 206.563 946.631 188.233 951.767 162.297L952.41 159.042H949.096H933.413H931.32L930.785 161.067C926.386 177.622 914.455 187.162 897.255 187.162C875.798 187.162 860.994 170.221 860.994 145.851C860.994 121.296 875.771 104.322 897.255 104.322C914.455 104.322 926.386 113.867 930.785 130.419L931.32 132.445H933.413H949.096H952.41L951.767 129.19C946.631 103.251 926.2 84.9203 897.254 84.9203C863.638 84.9203 839.864 111.936 839.864 145.851C839.864 179.581 863.67 206.563 897.254 206.563ZM832.242 106.067H834.965V103.343V90.2619V87.538H832.242H809.48V58.6537V55.9279H806.757H791.291H788.571V58.6537V87.538H770.166H767.446V90.2619V103.343V106.067H770.166H788.571V171.358C788.571 192.777 799.671 204.384 820.043 204.384C823.599 204.384 826.665 204.171 829.238 203.814C830.831 203.59 831.93 203.364 832.534 203.196L834.528 202.64V200.568V186.62V183.237L831.227 183.955C831.096 183.984 830.832 184.038 830.45 184.111C829.804 184.231 829.083 184.354 828.305 184.466C826.327 184.758 824.364 184.945 822.559 184.981C822.37 184.981 822.188 184.983 822.007 184.983C813.08 184.983 809.481 180.787 809.481 170.267V106.067H832.242ZM672.187 134.844C675.715 116.499 689.195 104.323 707.549 104.323C726.463 104.323 739.517 116.1 742.374 134.844H672.187ZM760.694 152.939H763.252L763.409 150.385C763.437 149.933 763.476 149.19 763.519 148.294C763.55 147.588 763.579 146.898 763.599 146.245C763.618 145.537 763.63 144.892 763.63 144.328C763.63 110.124 740.999 84.9203 707.548 84.9203C674.157 84.9203 650.374 111.747 650.374 145.633C650.374 180.505 673.081 206.563 707.764 206.563C733.99 206.563 754.249 190.991 761.548 167.368L762.64 163.839H758.951H742.83H740.907L740.264 165.651C735.68 178.583 723.268 187.162 707.98 187.162C687.994 187.162 674.061 173.424 671.551 152.939H760.694V152.939ZM565.319 37.724V35H562.598H547.133H544.411V37.724V201.226V203.947H547.133H562.599H565.32V201.226V172.072L587.331 150.618L626.639 202.862L627.454 203.947H628.815H647.981H653.464L650.149 199.579L602.146 136.294L646.415 92.1941L651.09 87.537H644.496H623.804H622.67L621.869 88.3421L565.32 145.345V37.724H565.319ZM421.232 154.152L421.045 151.629H418.518H402.837H400L400.117 154.465C401.411 186.069 422.699 207 460.557 207C496.663 207 521.215 188.226 521.215 159.805C521.215 144.437 515.889 133.562 505.737 126.133C497.929 120.418 488.594 117.2 473.112 113.839C472.078 113.616 470.999 113.385 469.706 113.112C468.939 112.953 466.188 112.375 466.333 112.406C438.217 106.507 429.3 101.38 429.3 86.1176C429.3 70.3367 442.195 60.2868 463.822 60.2868C484.865 60.2868 498.163 73.149 498.782 93.3961L498.863 96.0375H501.503H516.967H519.753L519.691 93.2499C518.961 61.6891 497.805 40.448 463.606 40.448C430.088 40.448 407.954 60.6333 407.954 86.7727C407.954 102.097 413.277 112.769 423.444 119.9C431.189 125.332 440.161 128.212 455.987 131.41C456.729 131.558 457.502 131.714 458.423 131.898C458.993 132.01 459.636 132.139 460.844 132.378C475.819 135.342 482.426 137.172 488.455 140.679C495.937 145.037 499.652 151.26 499.652 160.895C499.652 177.625 485.596 187.161 460.992 187.161C437.434 187.162 422.815 175.34 421.232 154.152Z" fill="white"/>
</mask>
<g mask="url(#mask0_275_1054)">
<path d="M1081.85 22.0239H387.037V219.978H1081.85V22.0239Z" fill="#5C5C5C"/>
</g>
<path d="M57.8649 7.90178L132.607 0L207.349 7.90178L265.214 85.5803L132.607 240L0 85.5803L57.8649 7.90178Z" fill="#FDB300"/>
<path d="M53.7125 85.5803L132.607 240L0 85.5803H53.7125Z" fill="#EA6C00"/>
<path d="M211.501 85.5804L132.607 240L265.214 85.5804H211.501Z" fill="#EA6C00"/>
<path d="M53.7129 85.5804H211.502L132.608 240L53.7129 85.5804Z" fill="#FDAD00"/>
<path d="M132.608 0L57.8651 7.90168L53.7129 85.5803L132.608 0Z" fill="#FDD231"/>
<path d="M132.606 0L207.349 7.90168L211.501 85.5803L132.606 0Z" fill="#FDD231"/>
<path d="M265.215 85.5803L207.349 7.90173L211.502 85.5803H265.215Z" fill="#FDAD00"/>
<path d="M0 85.5803L57.8647 7.90173L53.7125 85.5803H0Z" fill="#FDAD00"/>
<path d="M132.608 0L53.7129 85.5803H211.502L132.608 0Z" fill="#FEEEB7"/>
</svg>
