<svg width="1069" height="238" viewBox="0 0 1069 238" fill="none" xmlns="http://www.w3.org/2000/svg">
<path fill-rule="evenodd" clip-rule="evenodd" d="M440.712 132.595C459.839 136.736 476.868 140.422 476.868 157.407C476.868 171.74 464.369 179.576 442.716 179.586C421.283 179.586 409.902 168.167 408.784 151.139H382C382.889 177.13 399.19 204 441.378 204C479.323 204 504.321 185.185 504.321 156.289C504.321 119.756 474.87 113.146 449.796 107.519C431.212 103.348 415.034 99.7173 415.034 84.8422C415.034 70.7287 426.414 62.8931 444.942 62.8931C465.258 62.8931 475.75 75.43 475.969 91.1107H502.534C501.865 61.326 482.219 38.4787 444.942 38.4787C409.682 38.4787 388.249 60.1984 388.249 85.5111C388.249 121.238 416.204 127.29 440.712 132.595ZM536.026 200.856H562.59V105.893H582.007V84.6129H562.59V54.3791H536.026V84.6129H518.386V105.893H536.026V200.856ZM674.639 84.6224V152.935C674.639 171.072 666.154 180.035 650.091 180.035C634.018 180.035 625.533 171.081 625.533 152.935V84.6224H598.968V151.597C598.968 181.382 612.585 203.56 650.081 203.56C687.587 203.56 701.203 181.382 701.203 151.597V84.6224H674.639ZM835.812 32.8982H809.248L809.258 99.8636C802.779 90.0118 790.28 81.9469 772.201 81.9469C738.05 81.9469 718.633 109.496 718.633 142.864C718.633 176.012 738.05 203.56 772.201 203.56C790.28 203.56 803.897 196.394 811.264 184.296V200.875H835.812V32.8982ZM745.178 142.873C745.178 121.593 757.686 105.473 777.772 105.473C798.087 105.473 810.366 121.593 810.366 142.873C810.366 163.704 798.087 180.054 777.772 180.054C757.677 180.054 745.178 163.704 745.178 142.873ZM874.866 32C865.043 32 858.125 38.9469 858.125 48.7987C858.125 58.4307 865.052 65.1482 874.866 65.1482C884.469 65.1482 891.388 58.4307 891.388 48.7987C891.388 38.9469 884.46 32 874.866 32ZM888.043 200.875H861.479V84.632H888.043V200.875ZM965.95 81.9469C929.113 81.9469 905.902 110.174 905.902 142.873C905.902 175.572 929.113 203.57 965.95 203.57C1003 203.57 1026.22 175.572 1026.22 142.873C1026.22 110.164 1003.01 81.9469 965.95 81.9469ZM999.642 142.873C999.642 165.271 985.357 180.054 965.94 180.054C946.743 180.054 932.457 165.271 932.457 142.873C932.457 120.255 946.743 105.473 965.94 105.473C985.357 105.473 999.642 120.255 999.642 142.873ZM1068.75 200.512H1042.18V173.862H1068.75V200.512Z" fill="#5C5C5C"/>
<path fill-rule="evenodd" clip-rule="evenodd" d="M21.7566 0H218.243C230.259 0 240 9.65945 240 21.5753V216.425C240 228.341 230.259 238 218.243 238H21.7566C9.74063 238 0 228.341 0 216.425V21.5753C0 9.65945 9.74063 0 21.7566 0ZM94.869 60.5535C94.869 68.6808 88.1855 74.8818 80.2074 74.8818C72.2293 74.8818 65.5477 68.6799 65.5477 60.5535C65.5477 52.4317 72.2293 46.2316 80.2074 46.2316C88.1855 46.2316 94.869 52.4317 94.869 60.5535ZM48.5143 162.362C48.5143 159.16 48.9465 155.235 49.808 151.6L60.8031 107.055H43.7715L48.9465 88.1224H89.9115L73.7396 151.735C72.6615 155.801 72.2302 159.173 72.2302 161.52C72.2302 165.589 74.2496 166.778 77.4071 167.484C79.3299 167.911 94.6515 167.613 102.992 149.225L113.614 107.055H96.3652L101.54 88.1224H138.406L133.665 109.617C140.131 97.6415 153.069 86.263 165.789 86.263C179.371 86.263 190.584 95.8593 190.584 114.247C190.584 118.949 189.936 124.067 188.212 129.838L181.311 154.417C180.666 156.989 180.233 159.125 180.233 161.049C180.233 165.323 181.958 167.459 185.192 167.459C188.427 167.459 192.524 165.102 197.267 152.067L206.753 155.699C201.147 175.156 191.014 183.277 178.293 183.277C163.416 183.277 156.303 174.516 156.303 162.539C156.303 159.121 156.733 155.484 157.811 151.849L164.926 126.62C165.789 123.839 166.005 121.276 166.005 118.923C166.005 110.801 161.046 105.881 153.069 105.881C142.935 105.881 136.251 113.095 132.801 126.992L119.001 181.88H94.8559L99.1899 164.631C92.0921 176.194 82.2343 183.354 70.0749 183.354C55.4134 183.354 48.5143 174.978 48.5143 162.362Z" fill="#FF3366"/>
</svg>
