<svg width="1414" height="224" viewBox="0 0 1414 224" fill="none" xmlns="http://www.w3.org/2000/svg">
<path fill-rule="evenodd" clip-rule="evenodd" d="M186.545 0C136.8 0 105.709 24.8727 93.2727 74.6182C111.927 49.7455 133.691 40.4182 158.564 46.6364C172.755 50.1807 182.897 60.4822 194.125 71.8753C212.413 90.44 233.583 111.927 279.818 111.927C329.564 111.927 360.655 87.0545 373.091 37.3091C354.436 62.1818 332.673 71.5091 307.8 65.2909C293.609 61.7465 283.466 51.4451 272.239 40.052C253.951 21.4873 232.781 0 186.545 0ZM93.2727 111.927C43.5273 111.927 12.4364 136.8 0 186.545C18.6545 161.673 40.4182 152.345 65.2909 158.564C79.4822 162.115 89.6247 172.409 100.852 183.803C119.14 202.367 140.31 223.855 186.545 223.855C236.291 223.855 267.382 198.982 279.818 149.236C261.164 174.109 239.4 183.436 214.527 177.218C200.336 173.674 190.193 163.372 178.966 151.979C160.678 133.415 139.508 111.927 93.2727 111.927Z" fill="#1F93FF"/>
<path fill-rule="evenodd" clip-rule="evenodd" d="M559.608 94.323H527.052V157.334C527.052 174.137 538.079 173.874 559.608 172.824V198.291C516.025 203.542 498.697 191.465 498.697 157.334V94.323H474.543V67.018H498.697V31.754L527.052 23.3526V67.018H559.608V94.323ZM683.709 67.018H712.064V198.291H683.709V179.388C673.732 193.303 658.242 201.704 637.763 201.704C602.057 201.704 572.39 171.511 572.39 132.655C572.39 93.5354 602.057 63.6049 637.763 63.6049C658.242 63.6049 673.732 72.0067 683.709 85.659V67.018ZM642.227 174.662C665.856 174.662 683.709 157.071 683.709 132.655C683.709 108.238 665.856 90.6474 642.227 90.6474C618.598 90.6474 600.744 108.238 600.744 132.655C600.744 157.071 618.598 174.662 642.227 174.662ZM759.322 47.3271C749.345 47.3271 741.206 38.9257 741.206 29.2115C741.213 24.4097 743.127 19.8072 746.519 16.4119C749.919 13.0165 754.52 11.105 759.322 11.0958C764.124 11.105 768.725 13.0165 772.124 16.4119C775.517 19.8072 777.431 24.4097 777.438 29.2115C777.438 38.9257 769.299 47.3271 759.322 47.3271ZM745.144 198.291V67.018H773.499V198.291H745.144ZM806.318 198.291V6.63257H834.672V198.291H806.318ZM1018.72 67.018H1048.65L1007.43 198.291H979.597L952.293 109.813L924.725 198.291H896.896L855.676 67.018H885.606L911.073 157.596L938.64 67.018H965.683L992.987 157.596L1018.72 67.018ZM1083.83 47.3271C1073.85 47.3271 1065.71 38.9257 1065.71 29.2115C1065.72 24.4097 1067.63 19.8072 1071.03 16.4119C1074.42 13.0165 1079.03 11.105 1083.83 11.0958C1088.63 11.105 1093.23 13.0165 1096.63 16.4119C1100.02 19.8072 1101.94 24.4097 1101.94 29.2115C1101.94 38.9257 1093.8 47.3271 1083.83 47.3271ZM1069.65 198.291V67.018H1098.01V198.291H1069.65ZM1199.87 63.6049C1229.28 63.6049 1250.28 83.5587 1250.28 117.69V198.291H1221.93V120.578C1221.93 100.624 1210.38 90.1223 1192.52 90.1223C1173.88 90.1223 1159.18 101.149 1159.18 127.929V198.291H1130.82V67.018H1159.18V83.8212C1167.84 70.1688 1182.02 63.6049 1199.87 63.6049ZM1384.71 14.5089H1413.06V198.291H1384.71V179.388C1374.73 193.303 1359.24 201.704 1338.76 201.704C1303.05 201.704 1273.39 171.511 1273.39 132.655C1273.39 93.5354 1303.05 63.6049 1338.76 63.6049C1359.24 63.6049 1374.73 72.0067 1384.71 85.659V14.5089ZM1343.22 174.662C1366.85 174.662 1384.71 157.071 1384.71 132.655C1384.71 108.238 1366.85 90.6474 1343.22 90.6474C1319.59 90.6474 1301.74 108.238 1301.74 132.655C1301.74 157.071 1319.59 174.662 1343.22 174.662Z" fill="#5C5C5C"/>
</svg>
